<svg xmlns="http://www.w3.org/2000/svg" xmlns:xlink="http://www.w3.org/1999/xlink" preserveAspectRatio="xMidYMid" viewBox="0 0 49 90">
  <defs>
    <style>
      .cls-1 {
        fill: #826b60;
        fill-rule: evenodd;
      }
    </style>
  </defs>
  <path d="M48.286,46.663 L5.089,89.307 C4.618,89.771 4.004,89.999 3.390,89.999 L3.395,89.994 C3.229,89.994 3.070,89.934 2.907,89.900 C2.734,89.938 2.565,89.999 2.390,89.999 L2.395,89.994 C1.780,89.994 1.166,89.762 0.695,89.302 C-0.241,88.378 -0.241,86.876 0.695,85.952 L42.193,44.986 L0.695,4.020 C-0.241,3.096 -0.241,1.594 0.695,0.670 C1.293,0.080 2.122,-0.090 2.892,0.073 C3.662,-0.090 4.491,0.080 5.089,0.670 L48.286,43.314 C49.222,44.237 49.222,45.739 48.286,46.663 Z" class="cls-1"/>
</svg>
